<?xml version="1.0" encoding="UTF-8" standalone="no"?>
<svg
   xmlns:dc="http://purl.org/dc/elements/1.1/"
   xmlns:cc="http://creativecommons.org/ns#"
   xmlns:rdf="http://www.w3.org/1999/02/22-rdf-syntax-ns#"
   xmlns:svg="http://www.w3.org/2000/svg"
   xmlns="http://www.w3.org/2000/svg"
   viewBox="0 0 4520 1701.6133"
   height="1701.6133"
   width="4520"
   xml:space="preserve"
   id="svg2"
   version="1.1"><metadata
     id="metadata8"><rdf:RDF><cc:Work
         rdf:about=""><dc:format>image/svg+xml</dc:format><dc:type
           rdf:resource="http://purl.org/dc/dcmitype/StillImage" /></cc:Work></rdf:RDF></metadata><defs
     id="defs6"><clipPath
       id="clipPath18"
       clipPathUnits="userSpaceOnUse"><path
         id="path16"
         d="M 0,1276.213 H 3390 V 0 H 0 Z" /></clipPath></defs><g
     transform="matrix(1.3333333,0,0,-1.3333333,0,1701.6133)"
     id="g10"><g
       id="g12"><g
         clip-path="url(#clipPath18)"
         id="g14"><g
           transform="translate(109.2288,134.655)"
           id="g20"><path
             id="path22"
             style="fill:#676c72;fill-opacity:1;fill-rule:nonzero;stroke:none"
             d="m 0,0 c 25.327,0 45.423,7.278 60.284,21.84 14.856,14.556 22.289,34.9 22.289,61.032 0,26.126 -7.433,46.47 -22.289,61.031 C 45.423,158.46 25.327,165.743 0,165.743 H -39.491 V 0 Z M -64.622,189.977 H 0 c 21.938,0 41.085,-4.54 57.442,-13.613 16.351,-9.078 28.917,-21.69 37.696,-37.845 8.774,-16.157 13.164,-34.706 13.164,-55.647 0,-20.942 -4.39,-39.491 -13.164,-55.647 C 86.359,11.069 73.793,-1.548 57.442,-10.621 41.085,-19.699 21.938,-24.233 0,-24.233 h -64.622 z" /></g><g
           transform="translate(357.242,202.8669)"
           id="g24"><path
             id="path26"
             style="fill:#676c72;fill-opacity:1;fill-rule:nonzero;stroke:none"
             d="m 0,0 c -0.402,6.381 -2.197,12.762 -5.385,19.147 -3.193,6.381 -8.227,11.766 -15.108,16.156 -6.882,4.385 -15.511,6.582 -25.879,6.582 -11.967,0 -22.092,-3.843 -30.366,-11.519 C -85.017,22.687 -90.454,12.565 -93.043,0 Z m -83.171,-86.761 c -11.569,6.979 -20.596,16.605 -27.075,28.87 -6.484,12.267 -9.723,26.076 -9.723,41.436 0,14.758 3.038,28.319 9.124,40.688 6.082,12.365 14.707,22.238 25.879,29.619 11.168,7.377 24.131,11.069 38.893,11.069 14.959,0 27.922,-3.342 38.893,-10.023 10.967,-6.684 19.395,-15.907 25.28,-27.672 5.881,-11.772 8.826,-25.235 8.826,-40.39 0,-2.991 -0.299,-5.586 -0.898,-7.778 H -94.54 c 0.599,-11.57 3.39,-21.344 8.377,-29.32 4.984,-7.979 11.318,-13.963 18.998,-17.95 7.676,-3.992 15.707,-5.983 24.084,-5.983 19.544,0 34.602,9.171 45.175,27.524 l 21.541,-10.472 c -6.582,-12.369 -15.51,-22.138 -26.776,-29.319 -11.271,-7.18 -24.883,-10.77 -40.838,-10.77 -14.561,0 -27.627,3.492 -39.192,10.471" /></g><g
           transform="translate(394.0388,263.0007)"
           id="g28"><path
             id="path30"
             style="fill:#676c72;fill-opacity:1;fill-rule:nonzero;stroke:none"
             d="m 0,0 h 27.225 l 47.27,-122.661 h 0.598 L 122.961,0 h 26.627 L 87.359,-152.579 H 61.63 Z" /></g><g
           transform="translate(671.9709,202.8669)"
           id="g32"><path
             id="path34"
             style="fill:#676c72;fill-opacity:1;fill-rule:nonzero;stroke:none"
             d="m 0,0 c -0.402,6.381 -2.197,12.762 -5.385,19.147 -3.193,6.381 -8.227,11.766 -15.108,16.156 -6.882,4.385 -15.511,6.582 -25.879,6.582 -11.967,0 -22.092,-3.843 -30.366,-11.519 C -85.017,22.687 -90.454,12.565 -93.043,0 Z m -83.171,-86.761 c -11.569,6.979 -20.596,16.605 -27.075,28.87 -6.484,12.267 -9.723,26.076 -9.723,41.436 0,14.758 3.038,28.319 9.124,40.688 6.082,12.365 14.707,22.238 25.879,29.619 11.168,7.377 24.131,11.069 38.893,11.069 14.959,0 27.922,-3.342 38.893,-10.023 10.967,-6.684 19.395,-15.907 25.28,-27.672 5.881,-11.772 8.826,-25.235 8.826,-40.39 0,-2.991 -0.299,-5.586 -0.898,-7.778 H -94.54 c 0.599,-11.57 3.39,-21.344 8.377,-29.32 4.984,-7.979 11.318,-13.963 18.998,-17.95 7.676,-3.992 15.707,-5.983 24.084,-5.983 19.544,0 34.602,9.171 45.175,27.524 l 21.541,-10.472 c -6.582,-12.369 -15.51,-22.138 -26.776,-29.319 -11.271,-7.18 -24.883,-10.77 -40.838,-10.77 -14.561,0 -27.627,3.492 -39.192,10.471" /></g><path
           id="path36"
           style="fill:#676c72;fill-opacity:1;fill-rule:nonzero;stroke:none"
           d="m 728.512,324.632 h 25.43 v -214.21 h -25.43 z" /><g
           transform="translate(886.6296,135.7019)"
           id="g38"><path
             id="path40"
             style="fill:#676c72;fill-opacity:1;fill-rule:nonzero;stroke:none"
             d="m 0,0 c 8.078,4.684 14.557,11.416 19.446,20.194 4.885,8.775 7.33,19.045 7.33,30.816 0,11.765 -2.445,22.036 -7.33,30.815 C 14.557,90.599 8.078,97.33 0,102.02 c -8.078,4.683 -16.806,7.03 -26.178,7.03 -9.377,0 -18.152,-2.347 -26.327,-7.03 -8.181,-4.69 -14.712,-11.421 -19.597,-20.195 -4.889,-8.779 -7.329,-19.05 -7.329,-30.815 0,-11.771 2.44,-22.041 7.329,-30.816 4.885,-8.778 11.416,-15.51 19.597,-20.194 8.175,-4.688 16.95,-7.03 26.327,-7.03 9.372,0 18.1,2.342 26.178,7.03 m -66.567,-19.297 c -11.967,7.181 -21.293,16.95 -27.973,29.319 -6.685,12.365 -10.022,26.029 -10.022,40.988 0,14.959 3.337,28.618 10.022,40.987 6.68,12.364 16.006,22.139 27.973,29.318 11.967,7.181 25.43,10.771 40.389,10.771 14.959,0 28.422,-3.59 40.389,-10.771 11.967,-7.179 21.288,-16.954 27.973,-29.318 6.68,-12.369 10.022,-26.028 10.022,-40.987 0,-14.959 -3.342,-28.623 -10.022,-40.988 -6.685,-12.369 -16.006,-22.138 -27.973,-29.319 -11.967,-7.18 -25.43,-10.77 -40.389,-10.77 -14.959,0 -28.422,3.59 -40.389,10.77" /></g><g
           transform="translate(1065.0891,135.8513)"
           id="g42"><path
             id="path44"
             style="fill:#676c72;fill-opacity:1;fill-rule:nonzero;stroke:none"
             d="m 0,0 c 7.778,4.787 14.01,11.617 18.698,20.494 4.684,8.872 7.031,18.997 7.031,30.366 0,11.369 -2.347,21.49 -7.031,30.367 C 14.01,90.099 7.778,96.934 0,101.72 c -7.779,4.787 -16.058,7.18 -24.832,7.18 -8.779,0 -17.053,-2.393 -24.832,-7.18 -7.778,-4.786 -13.962,-11.57 -18.548,-20.344 -4.591,-8.778 -6.881,-18.951 -6.881,-30.516 0,-11.57 2.29,-21.742 6.881,-30.515 4.586,-8.78 10.77,-15.558 18.548,-20.345 7.779,-4.786 16.053,-7.18 24.832,-7.18 8.774,0 17.053,2.394 24.832,7.18 m -99.327,127.149 h 24.234 v -22.736 h 1.197 c 4.585,7.778 11.518,14.309 20.792,19.596 9.274,5.282 19.694,7.928 31.264,7.928 13.561,0 25.925,-3.493 37.098,-10.471 C 26.425,114.481 35.2,104.811 41.585,92.445 47.966,80.076 51.159,66.217 51.159,50.86 51.159,35.303 47.966,21.392 41.585,9.125 35.2,-3.141 26.425,-12.767 15.258,-19.745 4.085,-26.725 -8.279,-30.217 -21.84,-30.217 c -11.57,0 -21.99,2.647 -31.264,7.929 -9.274,5.282 -16.207,11.715 -20.792,19.297 h -1.197 l 1.197,-20.943 v -66.118 h -25.431 z" /></g><g
           transform="translate(1257.7556,202.8669)"
           id="g46"><path
             id="path48"
             style="fill:#676c72;fill-opacity:1;fill-rule:nonzero;stroke:none"
             d="m 0,0 c -0.402,6.381 -2.197,12.762 -5.385,19.147 -3.193,6.381 -8.227,11.766 -15.108,16.156 -6.882,4.385 -15.511,6.582 -25.879,6.582 -11.967,0 -22.092,-3.843 -30.366,-11.519 C -85.017,22.687 -90.454,12.565 -93.043,0 Z m -83.171,-86.761 c -11.569,6.979 -20.596,16.605 -27.075,28.87 -6.484,12.267 -9.723,26.076 -9.723,41.436 0,14.758 3.038,28.319 9.124,40.688 6.082,12.365 14.707,22.238 25.879,29.619 11.168,7.377 24.131,11.069 38.893,11.069 14.959,0 27.922,-3.342 38.893,-10.023 10.967,-6.684 19.395,-15.907 25.28,-27.672 5.881,-11.772 8.826,-25.235 8.826,-40.39 0,-2.991 -0.299,-5.586 -0.898,-7.778 H -94.54 c 0.599,-11.57 3.39,-21.344 8.377,-29.32 4.984,-7.979 11.318,-13.963 18.998,-17.95 7.676,-3.992 15.707,-5.983 24.084,-5.983 19.544,0 34.602,9.171 45.175,27.524 l 21.541,-10.472 c -6.582,-12.369 -15.51,-22.138 -26.776,-29.319 -11.271,-7.18 -24.883,-10.77 -40.838,-10.77 -14.561,0 -27.627,3.492 -39.192,10.471" /></g><g
           transform="translate(1314.2966,263.0007)"
           id="g50"><path
             id="path52"
             style="fill:#676c72;fill-opacity:1;fill-rule:nonzero;stroke:none"
             d="m 0,0 h 24.233 v -24.532 h 1.197 c 2.992,8.377 8.774,15.356 17.352,20.942 8.573,5.582 17.549,8.377 26.926,8.377 6.979,0 12.963,-1.099 17.951,-3.291 v -27.225 c -6.386,3.189 -13.566,4.788 -21.541,4.788 -7.381,0 -14.164,-2.1 -20.344,-6.297 -6.185,-4.199 -11.121,-9.845 -14.809,-16.942 -3.694,-7.095 -5.535,-14.743 -5.535,-22.937 v -85.462 H 0 Z" /></g><g
           transform="translate(1505.7678,120.8923)"
           id="g54"><path
             id="path56"
             style="fill:#676c72;fill-opacity:1;fill-rule:nonzero;stroke:none"
             d="m 0,0 c -13.963,10.173 -23.537,24.43 -28.721,42.782 l 24.233,9.873 C -1.099,39.889 5.184,29.418 14.36,21.242 23.532,13.062 34.302,8.976 46.671,8.976 c 12.365,0 22.836,3.337 31.414,10.022 8.573,6.68 12.864,15.805 12.864,27.375 0,9.971 -3.641,18.198 -10.92,24.682 -7.282,6.479 -19.198,12.513 -35.751,18.1 l -13.463,4.786 c -15.16,5.386 -27.524,12.463 -37.098,21.243 -9.573,8.773 -14.36,20.941 -14.36,36.499 0,10.171 2.79,19.595 8.377,28.272 5.581,8.676 13.36,15.604 23.335,20.792 9.972,5.185 21.139,7.779 33.508,7.779 12.364,0 23.135,-2.296 32.311,-6.881 9.172,-4.59 16.502,-10.172 21.989,-16.754 5.484,-6.581 9.322,-13.066 11.519,-19.447 L 86.462,155.272 c -1.996,7.377 -6.535,14.062 -13.613,20.045 -7.082,5.984 -16.408,8.976 -27.973,8.976 -10.971,0 -20.344,-3.095 -28.122,-9.274 -7.779,-6.185 -11.668,-13.964 -11.668,-23.336 0,-8.377 3.291,-15.211 9.872,-20.494 6.583,-5.287 16.554,-10.223 29.918,-14.809 l 14.062,-4.787 C 77.084,105.012 91.249,96.784 101.42,86.911 111.593,77.038 116.679,63.622 116.679,46.672 116.679,32.91 113.135,21.34 106.058,11.968 98.976,2.59 90.052,-4.291 79.282,-8.676 68.511,-13.061 57.442,-15.258 46.073,-15.258 29.319,-15.258 13.958,-10.172 0,0" /></g><g
           transform="translate(1688.7131,108.6785)"
           id="g58"><path
             id="path60"
             style="fill:#676c72;fill-opacity:1;fill-rule:nonzero;stroke:none"
             d="m 0,0 c -5.287,2.028 -9.724,4.772 -13.313,8.227 -3.993,3.856 -6.985,8.326 -8.976,13.402 -1.996,5.077 -2.992,11.27 -2.992,18.582 v 91.075 h -26.626 v 23.036 h 26.626 v 43.082 H 0.149 V 154.322 H 37.247 V 131.286 H 0.149 V 46.278 c 0,-8.563 1.594,-14.883 4.788,-18.96 3.786,-4.488 9.274,-6.727 16.454,-6.727 5.783,0 11.369,1.692 16.754,5.086 V 0.846 C 35.153,-0.548 32.109,-1.548 29.02,-2.146 25.925,-2.744 21.989,-3.044 17.202,-3.044 11.018,-3.044 5.282,-2.024 0,0" /></g><g
           transform="translate(1770.0872,121.7908)"
           id="g62"><path
             id="path64"
             style="fill:#676c72;fill-opacity:1;fill-rule:nonzero;stroke:none"
             d="M 0,0 C -9.676,10.77 -14.51,25.827 -14.51,45.175 V 141.21 H 10.92 V 49.064 c 0,-14.561 3.291,-25.233 9.873,-32.011 C 27.375,10.27 36.247,6.881 47.42,6.881 c 8.573,0 16.202,2.29 22.887,6.881 6.679,4.586 11.864,10.569 15.557,17.95 3.688,7.377 5.534,15.155 5.534,23.336 v 86.162 h 25.43 V -11.369 H 92.596 V 10.77 H 91.398 C 87.21,3.188 80.525,-3.193 71.354,-8.377 62.178,-13.562 52.403,-16.156 42.034,-16.156 23.682,-16.156 9.672,-10.771 0,0" /></g><g
           transform="translate(2015.7117,135.8513)"
           id="g66"><path
             id="path68"
             style="fill:#676c72;fill-opacity:1;fill-rule:nonzero;stroke:none"
             d="m 0,0 c 7.676,4.787 13.86,11.565 18.549,20.345 4.683,8.773 7.03,18.945 7.03,30.515 0,11.565 -2.347,21.738 -7.03,30.516 C 13.86,90.15 7.676,96.934 0,101.72 c -7.681,4.787 -16.006,7.18 -24.981,7.18 -8.78,0 -17.053,-2.393 -24.832,-7.18 -7.779,-4.786 -14.014,-11.621 -18.699,-20.493 -4.688,-8.877 -7.03,-18.998 -7.03,-30.367 0,-11.369 2.342,-21.494 7.03,-30.366 4.685,-8.877 10.92,-15.707 18.699,-20.494 7.779,-4.786 16.052,-7.18 24.832,-7.18 8.975,0 17.3,2.394 24.981,7.18 m -64.922,-19.745 c -11.069,6.978 -19.797,16.604 -26.178,28.87 -6.385,12.267 -9.573,26.178 -9.573,41.735 0,15.357 3.188,29.216 9.573,41.585 6.381,12.366 15.109,22.036 26.178,29.021 11.07,6.978 23.383,10.471 36.948,10.471 11.767,0 22.238,-2.646 31.414,-7.928 9.172,-5.287 16.156,-11.818 20.943,-19.596 h 1.196 l -1.196,21.241 v 63.126 h 25.43 V -25.43 H 25.579 V -2.991 H 24.383 C 19.596,-10.573 12.612,-17.006 3.44,-22.288 c -9.176,-5.282 -19.647,-7.929 -31.414,-7.929 -13.565,0 -25.878,3.492 -36.948,10.472" /></g><g
           transform="translate(2213.6169,202.8669)"
           id="g70"><path
             id="path72"
             style="fill:#676c72;fill-opacity:1;fill-rule:nonzero;stroke:none"
             d="m 0,0 c -0.402,6.381 -2.197,12.762 -5.386,19.147 -3.192,6.381 -8.227,11.766 -15.108,16.156 -6.881,4.385 -15.51,6.582 -25.879,6.582 -11.967,0 -22.092,-3.843 -30.366,-11.519 C -85.018,22.687 -90.454,12.565 -93.044,0 Z m -83.171,-86.761 c -11.57,6.979 -20.597,16.605 -27.076,28.87 -6.483,12.267 -9.723,26.076 -9.723,41.436 0,14.758 3.038,28.319 9.125,40.688 6.081,12.365 14.706,22.238 25.879,29.619 11.167,7.377 24.13,11.069 38.893,11.069 14.959,0 27.921,-3.342 38.892,-10.023 C 3.786,48.214 12.215,38.991 18.1,27.226 c 5.88,-11.772 8.826,-25.235 8.826,-40.39 0,-2.991 -0.3,-5.586 -0.898,-7.778 H -94.54 c 0.599,-11.57 3.39,-21.344 8.377,-29.32 4.983,-7.979 11.317,-13.963 18.998,-17.95 7.676,-3.992 15.706,-5.983 24.083,-5.983 19.545,0 34.602,9.171 45.176,27.524 L 23.635,-57.143 C 17.053,-69.512 8.124,-79.281 -3.142,-86.462 c -11.27,-7.18 -24.882,-10.77 -40.837,-10.77 -14.562,0 -27.627,3.492 -39.192,10.471" /></g><g
           transform="translate(2270.157,263.0007)"
           id="g74"><path
             id="path76"
             style="fill:#676c72;fill-opacity:1;fill-rule:nonzero;stroke:none"
             d="m 0,0 h 24.233 v -22.437 h 1.198 c 4.188,7.577 10.868,14.009 20.045,19.296 9.17,5.283 18.946,7.928 29.319,7.928 18.348,0 32.357,-5.338 42.034,-16.006 9.671,-10.672 14.51,-25.181 14.51,-43.53 v -97.83 h -25.43 v 93.941 c 0,14.159 -3.394,24.43 -10.173,30.816 -6.782,6.381 -16.056,9.573 -27.823,9.573 -8.181,0 -15.51,-2.295 -21.989,-6.881 -6.484,-4.591 -11.519,-10.621 -15.109,-18.1 -3.589,-7.48 -5.384,-15.31 -5.384,-23.486 v -85.863 H 0 Z" /></g><g
           transform="translate(2471.9509,108.6785)"
           id="g78"><path
             id="path80"
             style="fill:#676c72;fill-opacity:1;fill-rule:nonzero;stroke:none"
             d="m 0,0 c -5.287,2.028 -9.724,4.772 -13.313,8.227 -3.993,3.856 -6.985,8.326 -8.976,13.402 -1.996,5.077 -2.991,11.27 -2.991,18.582 v 91.075 h -26.627 v 23.036 h 26.627 v 43.082 H 0.149 V 154.322 H 37.247 V 131.286 H 0.149 V 46.278 c 0,-8.563 1.594,-14.883 4.788,-18.96 3.786,-4.488 9.274,-6.727 16.454,-6.727 5.783,0 11.369,1.692 16.754,5.086 V 0.846 C 35.153,-0.548 32.109,-1.548 29.02,-2.146 25.925,-2.744 21.989,-3.044 17.202,-3.044 11.018,-3.044 5.282,-2.024 0,0" /></g><g
           transform="translate(2652.5037,120.2947)"
           id="g82"><path
             id="path84"
             style="fill:#676c72;fill-opacity:1;fill-rule:nonzero;stroke:none"
             d="m 0,0 c -16.955,9.77 -30.269,23.186 -39.94,40.239 -9.676,17.053 -14.51,36.051 -14.51,56.993 0,20.942 4.834,39.94 14.51,56.993 9.671,17.052 22.985,30.464 39.94,40.239 16.95,9.77 35.798,14.66 56.544,14.66 15.955,0 30.562,-3.044 43.829,-9.125 13.263,-6.087 24.78,-14.711 34.556,-25.879 l -18.25,-17.651 c -8.181,9.769 -17.105,16.95 -26.777,21.54 -9.676,4.586 -20.793,6.882 -33.358,6.882 -15.557,0 -29.819,-3.642 -42.782,-10.92 -12.967,-7.284 -23.289,-17.554 -30.965,-30.816 -7.68,-13.266 -11.518,-28.571 -11.518,-45.923 0,-17.352 3.838,-32.662 11.518,-45.923 C -9.527,38.042 0.795,27.771 13.762,20.493 26.725,13.21 40.987,9.573 56.544,9.573 c 25.926,0 47.967,10.668 66.118,32.012 l 18.549,-17.95 C 131.235,11.864 118.969,2.543 104.412,-4.338 89.851,-11.22 73.896,-14.66 56.544,-14.66 35.798,-14.66 16.95,-9.774 0,0" /></g><path
           id="path86"
           style="fill:#676c72;fill-opacity:1;fill-rule:nonzero;stroke:none"
           d="m 2822.137,324.632 h 25.431 v -214.21 h -25.431 z" /><g
           transform="translate(2898.5769,121.7908)"
           id="g88"><path
             id="path90"
             style="fill:#676c72;fill-opacity:1;fill-rule:nonzero;stroke:none"
             d="M 0,0 C -9.676,10.77 -14.51,25.827 -14.51,45.175 V 141.21 H 10.92 V 49.064 c 0,-14.561 3.291,-25.233 9.873,-32.011 C 27.375,10.27 36.247,6.881 47.42,6.881 c 8.573,0 16.202,2.29 22.887,6.881 6.679,4.586 11.864,10.569 15.557,17.95 3.688,7.377 5.534,15.155 5.534,23.336 v 86.162 h 25.43 V -11.369 H 92.596 V 10.77 H 91.398 C 87.21,3.188 80.525,-3.193 71.354,-8.377 62.178,-13.562 52.403,-16.156 42.034,-16.156 23.682,-16.156 9.672,-10.771 0,0" /></g><g
           transform="translate(3152.4246,135.8513)"
           id="g92"><path
             id="path94"
             style="fill:#676c72;fill-opacity:1;fill-rule:nonzero;stroke:none"
             d="m 0,0 c 7.778,4.787 14.01,11.617 18.698,20.494 4.684,8.872 7.031,18.997 7.031,30.366 0,11.369 -2.347,21.49 -7.031,30.367 C 14.01,90.099 7.778,96.934 0,101.72 c -7.779,4.787 -16.058,7.18 -24.832,7.18 -8.778,0 -17.053,-2.393 -24.831,-7.18 -7.779,-4.786 -13.964,-11.57 -18.55,-20.344 -4.59,-8.778 -6.881,-18.951 -6.881,-30.516 0,-11.57 2.291,-21.742 6.881,-30.515 4.586,-8.78 10.771,-15.558 18.55,-20.345 7.778,-4.786 16.053,-7.18 24.831,-7.18 8.774,0 17.053,2.394 24.832,7.18 m -53.104,-22.288 c -9.275,5.282 -16.207,11.715 -20.792,19.297 h -1.198 V -25.43 h -24.233 v 214.21 h 25.431 v -63.126 l -1.198,-21.241 h 1.198 c 4.585,7.778 11.517,14.309 20.792,19.596 9.275,5.282 19.694,7.928 31.264,7.928 13.561,0 25.925,-3.493 37.098,-10.471 11.168,-6.985 19.941,-16.655 26.327,-29.021 6.381,-12.369 9.574,-26.228 9.574,-41.585 0,-15.557 -3.193,-29.468 -9.574,-41.735 -6.386,-12.266 -15.159,-21.892 -26.327,-28.87 -11.173,-6.98 -23.537,-10.472 -37.098,-10.472 -11.57,0 -21.989,2.647 -31.264,7.929" /></g><g
           transform="translate(3243.9724,117.1531)"
           id="g96"><path
             id="path98"
             style="fill:#676c72;fill-opacity:1;fill-rule:nonzero;stroke:none"
             d="M 0,0 C -10.972,7.676 -18.75,17.502 -23.336,29.469 L -0.599,39.641 C 3.188,30.465 8.826,23.383 16.305,18.399 23.784,13.411 32.012,10.92 40.987,10.92 c 9.574,0 17.749,1.944 24.533,5.834 6.778,3.89 10.171,9.424 10.171,16.604 0,6.381 -2.692,11.518 -8.077,15.408 -5.385,3.889 -13.865,7.227 -25.43,10.022 l -18.549,4.787 c -12.168,2.991 -22.139,8.077 -29.917,15.258 -7.78,7.18 -11.668,16.454 -11.668,27.823 0,8.775 2.64,16.501 7.928,23.187 5.282,6.679 12.313,11.816 21.091,15.407 8.775,3.59 18.25,5.385 28.422,5.385 13.361,0 25.28,-2.894 35.752,-8.676 10.471,-5.787 17.899,-13.865 22.288,-24.233 L 75.393,107.554 c -6.784,13.561 -18.849,20.343 -36.201,20.343 -8.377,0 -15.707,-1.944 -21.989,-5.834 -6.283,-3.888 -9.425,-8.825 -9.425,-14.808 0,-5.587 2.193,-10.126 6.582,-13.612 4.385,-3.493 10.967,-6.335 19.746,-8.528 L 56.245,79.432 C 71.204,75.64 82.47,70.007 90.052,62.527 97.63,55.049 101.421,45.924 101.421,35.153 101.421,25.776 98.729,17.549 93.343,10.471 87.958,3.389 80.675,-2.048 71.503,-5.834 62.327,-9.62 52.155,-11.519 40.987,-11.519 24.631,-11.519 10.967,-7.676 0,0" /></g><g
           transform="translate(1389.9558,958.6335)"
           id="g100"><path
             id="path102"
             style="fill:#ea4335;fill-opacity:1;fill-rule:nonzero;stroke:none"
             d="m 0,0 189.122,109.191 c 44.508,25.695 59.758,82.61 34.061,127.116 -25.698,44.505 -82.605,59.761 -127.116,34.061 L -230.728,81.69 Z" /></g><g
           transform="translate(1532.4622,677.9924)"
           id="g104"><path
             id="path106"
             style="fill:#4285f4;fill-opacity:1;fill-rule:nonzero;stroke:none"
             d="M 0,0 C 32.164,0 63.438,16.692 80.676,46.544 106.374,91.05 91.124,147.965 46.616,173.66 l -326.795,188.672 c -44.511,25.711 -101.418,10.444 -127.115,-34.061 -25.698,-44.511 -10.448,-101.421 34.06,-127.116 L -46.439,12.484 C -31.786,4.021 -15.784,0 0,0" /></g><g
           transform="translate(1857.5383,677.9924)"
           id="g108"><path
             id="path110"
             style="fill:#fbbc04;fill-opacity:1;fill-rule:nonzero;stroke:none"
             d="M 0,0 C 15.787,0 31.783,4.021 46.44,12.484 L 373.231,201.155 145.437,284.541 -46.615,173.66 C -91.124,147.965 -106.374,91.05 -80.676,46.544 -63.441,16.692 -32.161,0 0,0" /></g><g
           transform="translate(2184.1541,866.6638)"
           id="g112"><path
             id="path114"
             style="fill:#0f9d58;fill-opacity:1;fill-rule:nonzero;stroke:none"
             d="M 0,0 C 32.163,0 63.438,16.687 80.676,46.544 106.373,91.05 91.124,147.96 46.615,173.66 l -326.791,188.677 c -44.509,25.695 -101.416,10.451 -127.116,-34.06 -25.697,-44.506 -10.448,-101.416 34.061,-127.116 L -46.439,12.484 C -31.786,4.027 -15.784,0 0,0" /></g></g></g></g></svg>